<mxfile host="app.diagrams.net" modified="2021-10-07T15:15:08.754Z" agent="5.0 (Windows NT 10.0; Win64; x64) AppleWebKit/537.36 (KHTML, like Gecko) Chrome/94.0.4606.71 Safari/537.36" etag="rNw-EOCbdkxYm2bR-C9B" version="15.4.3" type="github">
  <diagram name="Page-1" id="2c0d36ab-eaac-3732-788b-9136903baeff">
    <mxGraphModel dx="1438" dy="1319" grid="1" gridSize="10" guides="1" tooltips="1" connect="1" arrows="1" fold="1" page="1" pageScale="1.5" pageWidth="1169" pageHeight="827" background="none" math="0" shadow="0">
      <root>
        <mxCell id="0" />
        <mxCell id="1" parent="0" />
        <mxCell id="123" value="" style="fillColor=#AE4132;strokeColor=none;opacity=30;" parent="1" vertex="1">
          <mxGeometry x="550" y="160.00000000000003" width="210" height="99.99999999999994" as="geometry" />
        </mxCell>
        <mxCell id="122" value="" style="fillColor=#10739E;strokeColor=none;opacity=30;" parent="1" vertex="1">
          <mxGeometry x="60" y="325.5" width="1243" height="100" as="geometry" />
        </mxCell>
        <mxCell id="119" value="" style="fillColor=#F2931E;strokeColor=none;opacity=30;" parent="1" vertex="1">
          <mxGeometry x="442" y="470" width="430" height="370" as="geometry" />
        </mxCell>
        <mxCell id="118" value="" style="fillColor=#F2931E;strokeColor=none;opacity=30;" parent="1" vertex="1">
          <mxGeometry x="100" y="470" width="210" height="455.5" as="geometry" />
        </mxCell>
        <mxCell id="2" value="Design Patterns" style="rounded=1;fillColor=#23445D;gradientColor=none;strokeColor=none;fontColor=#FFFFFF;fontStyle=1;fontFamily=Tahoma;fontSize=14" parent="1" vertex="1">
          <mxGeometry x="562" y="170" width="190" height="80" as="geometry" />
        </mxCell>
        <mxCell id="RWLrU9ZZQz2H-BEvMZnx-142" style="edgeStyle=orthogonalEdgeStyle;rounded=0;orthogonalLoop=1;jettySize=auto;html=1;entryX=0.523;entryY=0;entryDx=0;entryDy=0;entryPerimeter=0;" edge="1" parent="1" source="4" target="RWLrU9ZZQz2H-BEvMZnx-134">
          <mxGeometry relative="1" as="geometry" />
        </mxCell>
        <mxCell id="4" value="Behavioural" style="rounded=1;fillColor=#23445D;gradientColor=none;strokeColor=none;fontColor=#FFFFFF;fontStyle=1;fontFamily=Tahoma;fontSize=14" parent="1" vertex="1">
          <mxGeometry x="1049.9999999999998" y="335.5" width="190" height="80" as="geometry" />
        </mxCell>
        <mxCell id="9" value="" style="edgeStyle=elbowEdgeStyle;elbow=vertical;strokeWidth=2;rounded=0" parent="1" source="2" target="4" edge="1">
          <mxGeometry x="337" y="215.5" width="100" height="100" as="geometry">
            <mxPoint x="337" y="315.5" as="sourcePoint" />
            <mxPoint x="437" y="215.5" as="targetPoint" />
          </mxGeometry>
        </mxCell>
        <mxCell id="12" value="Structural" style="rounded=1;fillColor=#23445D;gradientColor=none;strokeColor=none;fontColor=#FFFFFF;fontStyle=1;fontFamily=Tahoma;fontSize=14" parent="1" vertex="1">
          <mxGeometry x="561.9999999999999" y="335.5" width="190" height="80" as="geometry" />
        </mxCell>
        <mxCell id="13" value="Creational" style="rounded=1;fillColor=#23445D;gradientColor=none;strokeColor=none;fontColor=#FFFFFF;fontStyle=1;fontFamily=Tahoma;fontSize=14" parent="1" vertex="1">
          <mxGeometry x="110" y="335.5" width="190" height="80" as="geometry" />
        </mxCell>
        <mxCell id="16" value="Abstract Factory" style="rounded=1;fillColor=#23445D;gradientColor=none;strokeColor=none;fontColor=#FFFFFF;fontStyle=1;fontFamily=Tahoma;fontSize=14" parent="1" vertex="1">
          <mxGeometry x="140" y="485.5" width="130" height="60" as="geometry" />
        </mxCell>
        <mxCell id="17" value="Builder" style="rounded=1;fillColor=#23445D;gradientColor=none;strokeColor=none;fontColor=#FFFFFF;fontStyle=1;fontFamily=Tahoma;fontSize=14" parent="1" vertex="1">
          <mxGeometry x="140" y="575.5" width="130" height="60" as="geometry" />
        </mxCell>
        <mxCell id="18" value="Factory Method" style="rounded=1;fillColor=#23445D;gradientColor=none;strokeColor=none;fontColor=#FFFFFF;fontStyle=1;fontFamily=Tahoma;fontSize=14" parent="1" vertex="1">
          <mxGeometry x="140" y="665.5" width="130" height="60" as="geometry" />
        </mxCell>
        <mxCell id="19" value="Prototype" style="rounded=1;fillColor=#23445D;gradientColor=none;strokeColor=none;fontColor=#FFFFFF;fontStyle=1;fontFamily=Tahoma;fontSize=14" parent="1" vertex="1">
          <mxGeometry x="140" y="755.5" width="130" height="60" as="geometry" />
        </mxCell>
        <mxCell id="20" value="Singleton" style="rounded=1;fillColor=#23445D;gradientColor=none;strokeColor=none;fontColor=#FFFFFF;fontStyle=1;fontFamily=Tahoma;fontSize=14" parent="1" vertex="1">
          <mxGeometry x="140" y="845.5" width="130" height="60" as="geometry" />
        </mxCell>
        <mxCell id="29" value="Adapter" style="rounded=1;fillColor=#23445D;gradientColor=none;strokeColor=none;fontColor=#FFFFFF;fontStyle=1;fontFamily=Tahoma;fontSize=14" parent="1" vertex="1">
          <mxGeometry x="492" y="485.5" width="130" height="60" as="geometry" />
        </mxCell>
        <mxCell id="30" value="Bridge" style="rounded=1;fillColor=#23445D;gradientColor=none;strokeColor=none;fontColor=#FFFFFF;fontStyle=1;fontFamily=Tahoma;fontSize=14" parent="1" vertex="1">
          <mxGeometry x="492" y="575.5" width="130" height="60" as="geometry" />
        </mxCell>
        <mxCell id="31" value="Composite" style="rounded=1;fillColor=#23445D;gradientColor=none;strokeColor=none;fontColor=#FFFFFF;fontStyle=1;fontFamily=Tahoma;fontSize=14" parent="1" vertex="1">
          <mxGeometry x="492" y="665.5" width="130" height="60" as="geometry" />
        </mxCell>
        <mxCell id="32" value="Decorator" style="rounded=1;fillColor=#23445D;gradientColor=none;strokeColor=none;fontColor=#FFFFFF;fontStyle=1;fontFamily=Tahoma;fontSize=14" parent="1" vertex="1">
          <mxGeometry x="492" y="755.5" width="130" height="60" as="geometry" />
        </mxCell>
        <mxCell id="59" value="" style="edgeStyle=elbowEdgeStyle;elbow=vertical;strokeWidth=2;rounded=0" parent="1" source="2" target="12" edge="1">
          <mxGeometry x="347" y="225.5" width="100" height="100" as="geometry">
            <mxPoint x="861.9999999999999" y="275.5" as="sourcePoint" />
            <mxPoint x="1466.9999999999998" y="345.5" as="targetPoint" />
          </mxGeometry>
        </mxCell>
        <mxCell id="61" value="" style="edgeStyle=elbowEdgeStyle;elbow=vertical;strokeWidth=2;rounded=0" parent="1" source="2" target="13" edge="1">
          <mxGeometry x="-23" y="135.5" width="100" height="100" as="geometry">
            <mxPoint x="-23" y="235.5" as="sourcePoint" />
            <mxPoint x="77" y="135.5" as="targetPoint" />
          </mxGeometry>
        </mxCell>
        <mxCell id="RWLrU9ZZQz2H-BEvMZnx-124" value="Facade" style="rounded=1;fillColor=#23445D;gradientColor=none;strokeColor=none;fontColor=#FFFFFF;fontStyle=1;fontFamily=Tahoma;fontSize=14" vertex="1" parent="1">
          <mxGeometry x="692" y="532.5" width="130" height="60" as="geometry" />
        </mxCell>
        <mxCell id="RWLrU9ZZQz2H-BEvMZnx-125" value="Flyweight" style="rounded=1;fillColor=#23445D;gradientColor=none;strokeColor=none;fontColor=#FFFFFF;fontStyle=1;fontFamily=Tahoma;fontSize=14" vertex="1" parent="1">
          <mxGeometry x="692" y="612" width="130" height="60" as="geometry" />
        </mxCell>
        <mxCell id="RWLrU9ZZQz2H-BEvMZnx-126" value="Proxy" style="rounded=1;fillColor=#23445D;gradientColor=none;strokeColor=none;fontColor=#FFFFFF;fontStyle=1;fontFamily=Tahoma;fontSize=14" vertex="1" parent="1">
          <mxGeometry x="692" y="697.5" width="130" height="60" as="geometry" />
        </mxCell>
        <mxCell id="RWLrU9ZZQz2H-BEvMZnx-130" value="" style="edgeStyle=elbowEdgeStyle;elbow=vertical;strokeWidth=2;rounded=0;exitX=0.5;exitY=1;exitDx=0;exitDy=0;entryX=0.5;entryY=0;entryDx=0;entryDy=0;" edge="1" parent="1" source="13" target="118">
          <mxGeometry x="-103" y="145.5" width="100" height="100" as="geometry">
            <mxPoint x="577" y="425.5" as="sourcePoint" />
            <mxPoint x="577" y="465.5" as="targetPoint" />
            <Array as="points">
              <mxPoint x="300" y="440" />
            </Array>
          </mxGeometry>
        </mxCell>
        <mxCell id="RWLrU9ZZQz2H-BEvMZnx-133" value="" style="edgeStyle=elbowEdgeStyle;elbow=vertical;strokeWidth=2;rounded=0;entryX=0.5;entryY=0;entryDx=0;entryDy=0;exitX=0.5;exitY=1;exitDx=0;exitDy=0;" edge="1" parent="1" source="12" target="119">
          <mxGeometry x="-3" y="155.5" width="100" height="100" as="geometry">
            <mxPoint x="520" y="440" as="sourcePoint" />
            <mxPoint x="305" y="480" as="targetPoint" />
            <Array as="points">
              <mxPoint x="657" y="440" />
            </Array>
          </mxGeometry>
        </mxCell>
        <mxCell id="RWLrU9ZZQz2H-BEvMZnx-134" value="" style="fillColor=#F2931E;strokeColor=none;opacity=30;" vertex="1" parent="1">
          <mxGeometry x="920" y="470" width="430" height="540" as="geometry" />
        </mxCell>
        <mxCell id="RWLrU9ZZQz2H-BEvMZnx-135" value="Chain of Respon." style="rounded=1;fillColor=#23445D;gradientColor=none;strokeColor=none;fontColor=#FFFFFF;fontStyle=1;fontFamily=Tahoma;fontSize=14" vertex="1" parent="1">
          <mxGeometry x="970" y="485.5" width="130" height="60" as="geometry" />
        </mxCell>
        <mxCell id="RWLrU9ZZQz2H-BEvMZnx-136" value="Command" style="rounded=1;fillColor=#23445D;gradientColor=none;strokeColor=none;fontColor=#FFFFFF;fontStyle=1;fontFamily=Tahoma;fontSize=14" vertex="1" parent="1">
          <mxGeometry x="970" y="575.5" width="130" height="60" as="geometry" />
        </mxCell>
        <mxCell id="RWLrU9ZZQz2H-BEvMZnx-137" value="Interpreter" style="rounded=1;fillColor=#23445D;gradientColor=none;strokeColor=none;fontColor=#FFFFFF;fontStyle=1;fontFamily=Tahoma;fontSize=14" vertex="1" parent="1">
          <mxGeometry x="970" y="665.5" width="130" height="60" as="geometry" />
        </mxCell>
        <mxCell id="RWLrU9ZZQz2H-BEvMZnx-138" value="Iterator" style="rounded=1;fillColor=#23445D;gradientColor=none;strokeColor=none;fontColor=#FFFFFF;fontStyle=1;fontFamily=Tahoma;fontSize=14" vertex="1" parent="1">
          <mxGeometry x="970" y="755.5" width="130" height="60" as="geometry" />
        </mxCell>
        <mxCell id="RWLrU9ZZQz2H-BEvMZnx-139" value="Memento" style="rounded=1;fillColor=#23445D;gradientColor=none;strokeColor=none;fontColor=#FFFFFF;fontStyle=1;fontFamily=Tahoma;fontSize=14" vertex="1" parent="1">
          <mxGeometry x="970" y="925.5" width="130" height="60" as="geometry" />
        </mxCell>
        <mxCell id="RWLrU9ZZQz2H-BEvMZnx-140" value="Observer" style="rounded=1;fillColor=#23445D;gradientColor=none;strokeColor=none;fontColor=#FFFFFF;fontStyle=1;fontFamily=Tahoma;fontSize=14" vertex="1" parent="1">
          <mxGeometry x="1173" y="532.5" width="130" height="60" as="geometry" />
        </mxCell>
        <mxCell id="RWLrU9ZZQz2H-BEvMZnx-141" value="State" style="rounded=1;fillColor=#23445D;gradientColor=none;strokeColor=none;fontColor=#FFFFFF;fontStyle=1;fontFamily=Tahoma;fontSize=14" vertex="1" parent="1">
          <mxGeometry x="1173" y="618" width="130" height="60" as="geometry" />
        </mxCell>
        <mxCell id="RWLrU9ZZQz2H-BEvMZnx-143" value="Mediator" style="rounded=1;fillColor=#23445D;gradientColor=none;strokeColor=none;fontColor=#FFFFFF;fontStyle=1;fontFamily=Tahoma;fontSize=14" vertex="1" parent="1">
          <mxGeometry x="970" y="840" width="130" height="60" as="geometry" />
        </mxCell>
        <mxCell id="RWLrU9ZZQz2H-BEvMZnx-144" value="Strategy" style="rounded=1;fillColor=#23445D;gradientColor=none;strokeColor=none;fontColor=#FFFFFF;fontStyle=1;fontFamily=Tahoma;fontSize=14" vertex="1" parent="1">
          <mxGeometry x="1173" y="706" width="130" height="60" as="geometry" />
        </mxCell>
        <mxCell id="RWLrU9ZZQz2H-BEvMZnx-145" value="Template Method" style="rounded=1;fillColor=#23445D;gradientColor=none;strokeColor=none;fontColor=#FFFFFF;fontStyle=1;fontFamily=Tahoma;fontSize=14" vertex="1" parent="1">
          <mxGeometry x="1173" y="800.5" width="130" height="60" as="geometry" />
        </mxCell>
        <mxCell id="RWLrU9ZZQz2H-BEvMZnx-147" value="Visitor" style="rounded=1;fillColor=#23445D;gradientColor=none;strokeColor=none;fontColor=#FFFFFF;fontStyle=1;fontFamily=Tahoma;fontSize=14" vertex="1" parent="1">
          <mxGeometry x="1173" y="890" width="130" height="60" as="geometry" />
        </mxCell>
      </root>
    </mxGraphModel>
  </diagram>
</mxfile>
